<?xml version="1.0" encoding="UTF-8"?>
<svg id="Layer_1" data-name="Layer 1" xmlns="http://www.w3.org/2000/svg" viewBox="0 0 2898.55 572.67">
  <defs>
    <style>
      .cls-1 {
        fill: #000;
      }

      .cls-1, .cls-2 {
        stroke-width: 0px;
      }

      .cls-2 {
        fill: #fff;
      }
    </style>
  </defs>
  <path class="cls-1" d="M376.99,74.23c-14.61.79-29.23,1.57-43.84,2.4-1.72.1-2.48-.54-2.13-2.17.47-2.13,1.04-4.26,1.76-6.32.35-.99,1.12-1.83,1.72-2.73,5.21-7.84,6.28-11.81,5.68-22.12-6.19,2.51-12.32,4.59-18.07,7.41-16.11,7.91-28.38,20.17-38.33,34.89-12.66,18.74-20.61,39.56-26.5,61.22-3.21,11.82-6.38,23.66-7.27,35.98-1.07,14.82,2.68,28.25,11.66,40.04,4.99,6.55,10.45,12.76,15.87,18.97,9.75,11.17,18.25,23.06,22.92,37.35,3.48,10.64,5.12,21.55,5.12,32.71,0,1.2-1.02,2.41-2.03,3.51-9.57-32.5-27.97-59.08-51.75-82.17-23.8-23.11-51.19-40.39-83.51-50.03.68,14.33,1.35,28.33,2.03,42.66-4.25.79-8.45,1.57-12.65,2.36-1.35.25-2.69.58-4.04.83-12.14,2.23-20.25,9.3-24.83,20.64-2.75,6.81-5.54,13.6-8.33,20.39-2.61,6.35-6.67,11.24-12.71,14.92-4.62,2.81-8.42,6.98-12.46,10.68-.63.58-.93,1.93-.82,2.86.95,8.14,2.98,15.99,6.74,23.31,6.45,12.55,17.22,19.05,30.71,21.3,9.09,1.51,18.29,2.4,27.43,3.6,1.36.18,2.71.48,4.04.81,12.2,3.11,17.39,9.31,19.2,22.89.07,1.09.14,2.18.21,3.27-6.48.02-12.96.09-19.44.04-46.37-.32-92.74-.55-139.1-1.16-4.91-.06-9.92-2.06-14.65-3.81-3.84-1.42-5.85-5.07-6.4-8.98-1.03-7.27-1.97-14.6-2.29-21.93-1.27-29.75-1.39-59.52.54-89.25.9-13.9,2.19-27.78,5.72-41.34.67-2.58,1.84-3.83,4.49-4.49,15.59-3.86,31.47-4.45,47.4-4.18,19.15.33,38.3,1.2,57.44,1.17,7.87,0,15.74-1.74,23.6-2.79,1.33-.18,2.63-.78,3.9-1.29,8.11-3.22,12.52-9.11,12.97-17.9.19-3.82.53-7.63.83-11.96,12.92,4.81,25.62,9.54,38.78,14.44.55-6.33,1.48-12.35,1.52-18.38.13-19.25.15-38.5-.21-57.74-.38-20.92-1.62-41.86.53-62.72,1.07-10.4,3.49-20.66,5.27-30.98.39-2.26,1.61-3.39,3.86-4.13,11.11-3.66,22.58-5.1,34.17-5.57,7.95-.32,15.91-.14,23.87-.21,22.11-.17,44.2-.58,66.29-.53,7.7.02,15.55.47,23.07,2.01,11.01,2.26,16.82,9.27,17.95,20.5,1.31,12.99,2.18,26.03,3.25,39.04.04.49.15.97.23,1.45.19,3.74.39,7.48.58,11.21v.02Z"/>
  <path class="cls-2" d="M376.99,74.23c-.19-3.74-.39-7.48-.58-11.21,13.48-.48,23.35,5.34,29.26,17.37,3.5,7.12,6.46,14.51,9.45,21.87.9,2.21,2.06,2.84,4.37,2.79,11.29-.29,22.59-.45,33.88-.54,3.03-.02,6.09.23,9.1.65,11.54,1.58,17.22,7.47,18.83,19.2,2.9,21.16-1.58,40.35-14.96,57.28-3.94,4.98-7.5,10.25-11.76,16.1,1.82,0,2.83.02,3.83,0,18.17-.41,36.33-1.08,54.5-1.15,15.23-.06,30.48.73,45.3,4.61,12.21,3.2,9.96.41,12.18,12.47,2.54,13.76,4.18,27.77,5,41.74.95,16.26.98,32.6.69,48.89-.37,20.12-1.81,40.18-6.16,59.95-1.08,4.89-3.38,7.07-8.07,8.46-29.79,8.84-59.36,7.38-88.79-1.47-31.49-9.47-59.36-25.72-84.8-46.25-36-29.07-65.29-63.7-85.8-105.4-7.57-15.39-13.26-31.43-16-48.43-.16-.97-.28-1.94-.38-2.92-.03-.33.03-.67.27-1.11,16.4,40.68,43.06,72.36,81.47,94.2-.38-6.66-.67-12.92-1.12-19.18-.64-8.73,1.88-16.2,7.21-23.28,5.23-6.94,9.43-14.67,13.96-22.13.87-1.44,1.53-1.99,3.38-1.79,12.62,1.39,25.25,2.05,37.8-.82,13.08-2.99,23.32-10.1,29.63-21.87,4.94-9.2,8.78-18.98,13.11-28.5-4.64-3.77-9.13-7.41-14.34-11.65h10.21c.46-1.96,1.16-4.21,1.43-6.52.08-.7-.83-1.78-1.57-2.28-6.05-4.1-12.94-5.4-20.08-5.91-9.88-.71-19.76-1.49-29.63-2.42-2.41-.23-4.79-1.02-7.12-1.78-3.05-.99-5.59-2.92-6.38-6.05-3.88-15.36-14.82-24.77-27.31-32.93h0Z"/>
  <path class="cls-2" d="M182.81,373.71c-.07-1.09-.14-2.18-.21-3.27,5.5-2.52,11.47-4.33,16.41-7.68,21.44-14.54,36.06-34.37,44.06-59.05,1.28-3.97,2.52-7.95,3.77-11.87,3.64,30.99-7.48,57.28-26.95,81.18,8.35,0,15.67.18,22.98-.03,21.89-.63,43.78-1.66,65.62.94,10.16,1.21,20.14,3.27,29.69,7.09,20.65,8.25,33,22.98,36.46,45.3,4.01,25.85,4.85,51.8,3.55,77.83-.73,14.59-2.26,29.14-3.7,43.69-.45,4.56-1.87,9.01-2.68,13.54-.35,1.96-1.4,2.95-3.2,3.3-9.72,1.84-19.38,4.2-29.18,5.38-22.27,2.68-44.68,2.96-67.07,2.36-20.32-.54-40.58-1.76-60.62-5.63-5.95-1.15-8.9-3.57-10.1-9.8-2.63-13.73-4.72-27.52-4.98-41.45-.54-28.27-.59-56.55-.52-84.83.04-17.77.68-35.55,1.04-53.32.02-1.15,0-2.3,0-3.67h-14.37,0Z"/>
  <g>
    <path class="cls-2" d="M2586.26,427.14c-1.26.68-2.37.41-3.43.41-24.74.02-49.48-.03-74.22.07-2.65.01-4.12-.85-5.5-3.09-18.02-29.26-36.17-58.44-54.19-87.71-1.39-2.27-2.88-3.04-5.51-3.03-26.33.1-52.65.06-78.98.06-.73,0-1.46.04-2.19,0-1.37-.08-2.03.5-1.96,1.91.05.97,0,1.95,0,2.92v84.84c0,4.28.4,4.02-3.86,4.02h-61.43c-1.81-.05-2.74-1.02-2.79-2.91-.01-.61,0-1.22,0-1.83V149.99c0-5.56-.68-4.89,4.82-4.89,59.48-.02,118.95,0,178.43-.02,14.06,0,28,1,41.66,4.52,11.22,2.89,21.62,7.5,30.55,15.05,9.99,8.44,16.39,19.19,20.26,31.55,2.67,8.53,4.17,17.3,4.91,26.18,1.32,15.85,1.12,31.67-1.97,47.34-2.28,11.61-6.26,22.53-13.53,32.04-8.48,11.1-19.77,18.27-32.6,23.27-1.36.53-2.73,1.06-4.12,1.5-1.35.43-1.36,1.18-.68,2.19.48.71.94,1.42,1.42,2.13,20.8,30.66,41.6,61.32,62.38,91.99.88,1.29,1.97,2.47,2.51,4.27l.02.03ZM2422.07,204.14h-58.49c-3.24,0-3.28.05-3.28,3.17-.01,22.43-.01,44.85,0,67.28,0,3.02.05,3.07,2.96,3.07,37.53,0,75.07-.01,112.6-.03,3.68,0,7.27-.57,10.83-1.47,8.34-2.1,13.62-7.21,15.54-15.67.24-1.07.52-2.13.72-3.21,1.57-8.32,1.68-16.72,1.11-25.13-.31-4.62-.92-9.21-2.54-13.61-2.76-7.5-7.95-12.03-15.89-13.45-4.47-.8-8.96-.95-13.47-.96-16.7-.03-33.39,0-50.09,0v.02Z"/>
    <path class="cls-2" d="M2602.52,285.98v-136.38c0-5.04-.46-4.48,4.52-4.48,59.95,0,119.91.02,179.86-.03,13.36,0,26.52,1.33,39.29,5.37,27.06,8.55,45.95,26.27,57.59,51.94,6.86,15.12,10.48,31.13,12.53,47.52,2.46,19.65,2.81,39.37,1.39,59.11-1.46,20.39-4.78,40.42-12.97,59.34-13.8,31.86-37.82,50.9-72,57.09-7.33,1.33-14.71,2.08-22.16,2.08-61.54.02-123.07.02-184.61.02-3.43,0-3.45-.03-3.45-3.74v-137.84h0ZM2671.82,286.72v47.54c0,10.6-.01,21.21,0,31.81,0,2.85.06,2.85,2.76,2.93.49.01.97,0,1.46,0h99.81c3.9,0,7.78-.15,11.67-.6,17.13-1.98,28.79-10.92,34.9-27.08,2.91-7.7,4.33-15.73,5.06-23.88,2-22.4,2.06-44.79-.62-67.14-1.05-8.77-3.2-17.25-7.44-25.08-4.86-8.97-12.1-15.16-21.81-18.37-6.43-2.12-13.1-2.69-19.83-2.69h-102.37c-3.57,0-3.58.03-3.6,3.59v78.98h.01Z"/>
    <path class="cls-2" d="M2171.05,427.55c-27.54,0-55.08.04-82.63-.02-13.56-.03-27-1.24-40.23-4.37-7.62-1.8-14.96-4.37-21.87-8.09-15.31-8.23-25.38-20.77-29.87-37.5-6-22.36-5.95-44.85.15-67.19,5.26-19.27,17.59-32.46,35.89-40.23,10.06-4.27,20.61-6.56,31.41-7.95,10.78-1.39,21.62-1.57,32.47-1.56,31.81.03,63.62.01,95.42.01.85,0,1.71.03,2.56,0,2.31-.1,2.46-.19,2.37-2.58-.3-8.31-1.33-16.52-3.81-24.49-5.13-16.47-16.56-25.57-33.33-28.42-5.43-.92-10.91-1.01-16.39-1.01h-139.3c-5.72,0-4.95.49-4.96-4.78-.03-16.58-.01-33.15,0-49.73,0-.85.04-1.71,0-2.56-.07-1.38.52-2.03,1.92-1.95.73.04,1.46,0,2.19,0,50.7,0,101.39.03,152.09-.02,14.09,0,28,1.34,41.51,5.43,32.13,9.73,52.84,30.93,62.68,62.92,3.71,12.06,5.65,24.43,6.57,36.98.61,8.27.68,16.56.67,24.85-.02,49.24,0,98.49-.02,147.73,0,5.03.48,4.55-4.46,4.55h-91.04v-.02h.01ZM2139.92,308.79h-11.33c-13.64.04-27.29.06-40.93.14-4.05.02-7.97.85-11.82,2.1-6.56,2.14-10.66,6.53-12.49,13.16-1.11,4.02-1.6,8.13-1.82,12.26-.39,7.21-.13,14.39,1.88,21.38,2.1,7.3,6.83,11.88,14.34,13.54,4.79,1.05,9.63,1.36,14.51,1.35,33.62-.01,67.25,0,100.87,0,.61,0,1.22-.03,1.83,0,1.36.08,2.07-.47,1.98-1.9-.04-.61,0-1.22,0-1.83v-56.29c0-4.22.1-3.92-4.04-3.92h-52.99.01Z"/>
    <path class="cls-2" d="M1179.09,312.56h-88.11c-.73,0-1.46-.01-2.19,0-3.74.07-4.21-.88-3.58,4.28.93,7.64,2.18,15.2,4.67,22.5.75,2.19,1.6,4.35,2.59,6.44,6.46,13.73,17.52,21.07,32.31,23.28,4.48.67,8.98.75,13.49.75,43.99,0,87.99-.01,131.98.01,5.62,0,5.16-.96,5.17,5.33.01,15.97,0,31.93,0,47.9,0,.85-.04,1.71,0,2.56.07,1.39-.54,2.03-1.94,1.96-.73-.04-1.46,0-2.19,0-48.26,0-96.52-.03-144.77.01-12.25.01-24.34-1.21-36.11-4.64-27.91-8.13-47.6-25.79-59.66-52.1-6.71-14.64-10.34-30.15-12.44-46.05-2.8-21.23-3.03-42.54-1.36-63.85,1.5-19.03,4.91-37.68,12.32-55.42,8.07-19.33,20.45-35.06,38.53-45.99,11.31-6.84,23.65-10.81,36.65-12.85,7.36-1.15,14.76-1.57,22.21-1.57,48.26.03,96.52,0,144.78.02,4.06,0,3.99-.5,3.99,3.92v49.73c0,.73-.03,1.46-.01,2.19.04,1.39-.63,1.98-2,1.92-.97-.04-1.95,0-2.92,0-44.24,0-88.47,0-132.71,0-5.62,0-11.2.23-16.7,1.53-13.02,3.08-22.63,10.45-28.39,22.6-4.23,8.92-6.17,18.45-7.17,28.2-.28,2.73-.17,2.75,2.71,2.81.97.02,1.95,0,2.92,0h178.41c4.39.04,4.39-.63,4.38,4.32-.01,15.36,0,30.72,0,46.07,0,.73-.02,1.46-.01,2.19.02,1.34-.53,2.05-1.96,1.97-.97-.05-1.95,0-2.92,0h-89.97Z"/>
    <path class="cls-2" d="M1031.01,145.3c.19,1.44-.58,2.46-1.03,3.56-38,91.32-76.01,182.65-114.05,273.95-2.37,5.69-.84,4.73-6.95,4.74-23.76.04-47.52.03-71.29.01-4.13,0-3.54.53-5.21-3.55-37.36-91.46-74.71-182.92-112.04-274.38-.54-1.32-1.46-2.55-1.21-4.13,1.16-.67,2.39-.36,3.57-.36,22.67-.02,45.33-.02,68,0,4.38,0,3.59-.3,5.09,3.65,19.54,51.47,39.07,102.95,58.57,154.44,5.91,15.61,12.48,30.96,17.82,46.78.82,2.42,1.46,4.9,2.22,7.34.16.53.21,1.32,1.01,1.27.77-.05.79-.82.96-1.37,3.28-10.86,7.49-21.38,11.52-31.96,22.55-59.32,46.31-118.18,69.47-177.26.72-1.84,1.44-2.96,3.81-2.95,22.67.11,45.33.06,68,.07.59,0,1.17.12,1.75.18v-.02Z"/>
    <path class="cls-2" d="M1894.04,427.55c-23.52,0-47.04.05-70.56-.02-13.87-.04-27.45-2.07-40.48-6.93-25.68-9.57-43.16-27.63-53.8-52.61-6.51-15.27-9.84-31.33-11.76-47.74-1.93-16.51-2.13-33.08-1.39-49.65.99-21.89,4.16-43.42,12.44-63.91,8.14-20.15,20.91-36.47,39.8-47.64,11.16-6.6,23.28-10.44,36.04-12.41,7.6-1.18,15.25-1.55,22.94-1.55,47.77.03,95.54,0,143.31.02,4.96,0,4.42-.53,4.43,4.56.02,16.7,0,33.4,0,50.1,0,.85-.03,1.71,0,2.56.03,1.21-.53,1.8-1.74,1.79-1.1,0-2.19.02-3.29.02h-131.25c-6.34,0-12.66.2-18.87,1.74-11.55,2.88-20.11,9.53-25.59,20.11-4.38,8.47-6.37,17.6-7.37,26.99-2.14,20.18-2.11,40.39-.63,60.61.66,9,1.88,17.94,4.97,26.5,1.87,5.19,4.3,10.09,7.85,14.36,6.92,8.33,16.04,12.41,26.56,13.84,4.36.59,8.73.72,13.12.72,43.87-.02,87.74-.02,131.61,0,5.13,0,4.6-.6,4.61,4.76.02,16.33,0,32.67,0,49,0,.98-.05,1.95,0,2.92.06,1.44-.67,1.94-2.01,1.88-.97-.04-1.95,0-2.92,0h-76.04v-.02h.02Z"/>
    <path class="cls-2" d="M1437.89,145.11h139.67c5.05,0,4.51-.5,4.51,4.48.02,16.21,0,32.42,0,48.64v1.1c-.03,3.52-.03,3.54-3.63,3.54h-78.24c-8.17,0-16.33,0-24.5,0-3.06,0-3.07.05-3.12,2.95-.02.97,0,1.95,0,2.93v213.93c0,5.56.61,4.86-4.85,4.87-19.99.03-39.97.02-59.96,0-5.35,0-4.75.57-4.75-4.6-.01-71.68,0-143.35-.02-215.03,0-5.8.84-5.04-5.01-5.04-33.03-.03-66.06,0-99.08,0h-1.83c-3.46-.03-3.48-.03-3.52-3.34-.02-1.83,0-3.66,0-5.49v-44.25c0-.98.03-1.95.01-2.93-.02-1.2.51-1.8,1.74-1.77.97.03,1.95,0,2.92,0h139.67v.02Z"/>
  </g>
</svg>